<?xml version="1.0" standalone="no"?>
<!DOCTYPE svg PUBLIC "-//W3C//DTD SVG 1.1//EN" "http://www.w3.org/Graphics/SVG/1.1/DTD/svg11.dtd" >
<!--
2013-9-30: Created.
-->
<svg>
<metadata>
Created by iconfont
</metadata>
<defs>

<font id="iconfont" horiz-adv-x="1024" >
  <font-face
    font-family="iconfont"
    font-weight="500"
    font-stretch="normal"
    units-per-em="1024"
    ascent="896"
    descent="-128"
  />
    <missing-glyph />
    
    <glyph glyph-name="rexian" unicode="&#59076;" d="M0.126838 288.127959c0-109.502728 82.500149-191.998785 191.998785-191.998785l32.001502 0 0 383.997571-32.001502 0C82.626987 480.125721 0.126838 397.625572 0.126838 288.127959L0.126838 288.127959zM160.12719 163.755299c-57.123986 13.122815-96.001438 61.497917-96.001438 124.496431 0 62.999537 38.877452 111.373616 96.001438 124.502569l0-249.003092L160.12719 163.755299zM160.12719 163.755299M831.874373 480.125721l-32.001502 0 0-383.871754 32.001502 0c109.498636 0 191.998785 82.499126 191.998785 191.997762C1023.873158 397.625572 941.373009 480.125721 831.874373 480.125721L831.874373 480.125721zM863.871784 163.755299 863.871784 412.628482c57.123986-13.12793 96.001438-61.377214 96.001438-124.376752C959.873222 225.253215 921.000884 176.878114 863.871784 163.755299L863.871784 163.755299zM863.871784 163.755299M799.87287 543.876069 799.87287 543.876069c0.627039-17.127478 14.750253-30.872218 32.001502-30.872218 17.247158 0 31.375486 13.748832 31.997411 30.872218l0 0 0 0.498153 0 0.627039 0 1.750186C862.250483 739.625837 705.000716 896 512.001532 896c-193.127047 0-350.253042-156.374163-351.874343-349.123758l0-1.751209 0-0.751833 0-0.498153 0 0c0.626016-17.127478 14.74923-30.872218 32.001502-30.872218 17.247158 0 31.374463 13.748832 31.997411 30.872218l0 0c0 158.876182 129.123019 288.123995 287.874407 288.123995s287.874407-129.252928 287.874407-288.123995L799.87287 543.875046zM799.87287 543.876069M927.875811 64.252465c-17.625632 0-32.002525-14.371779-32.002525-31.997411l0-0.129909c-0.123771-21.997517-16.122988-31.872617-32.001502-31.872617L747.125884 0.252529c-13.252724 37.126244-48.752553 63.750348-90.375475 63.750348-52.875872 0-96.001438-43.125566-96.001438-96.001438 0-52.875872 43.125566-96.001438 96.001438-96.001438 41.876602 0 77.500202 26.877784 90.62404 64.253616l116.497334 0c54.750852 0 96.001438 41.250586 96.001438 95.997347C959.873222 49.875572 945.501443 64.252465 927.875811 64.252465L927.875811 64.252465zM656.750409-63.995972c-17.625632 0-32.001502 14.371779-32.001502 31.997411 0 17.625632 14.376894 32.001502 32.001502 32.001502 17.749403 0 31.997411-14.376894 31.997411-32.001502C688.74782-49.624193 674.376041-63.995972 656.750409-63.995972L656.750409-63.995972zM656.750409-63.995972"  horiz-adv-x="1024" />

    
    <glyph glyph-name="dianhua" unicode="&#58906;" d="M512-110.666c-273.155 0-494.958 221.802-494.958 494.958s221.802 496.050 494.958 496.050 494.958-221.802 494.958-494.958c0-273.155-221.802-496.050-494.958-496.050zM512 859.581c-261.137 0-474.196-213.061-474.196-474.196s213.061-474.196 474.196-474.196c261.137 0 474.196 213.061 474.196 474.196s-213.061 474.196-474.196 474.196zM554.612 290.326c0 0 32.775 18.572 41.52 24.035 8.74 4.371 17.481 5.465 22.945 2.188 8.74-5.465 77.574-51.354 84.133-55.724 5.465-4.37 8.74-15.295 1.092-27.317s-44.798-56.816-61.185-56.816c-15.297 0-80.854 2.187-204.321 124.559-122.373 123.466-123.466 189.023-124.559 204.321 0 15.297 44.798 52.446 56.816 61.186 12.018 7.648 22.945 5.462 27.317-1.092 4.37-6.557 50.261-75.391 55.724-84.133 3.278-5.462 2.187-14.205-2.187-22.945-4.37-8.74-24.037-41.52-24.037-41.52s13.11-22.945 59.003-68.834c44.797-44.798 67.742-57.908 67.742-57.908z"  horiz-adv-x="1024" />

    
    <glyph glyph-name="map" unicode="&#58899;" d="M816.898 428.755c-10.22 0-18.508 8.461-18.508 18.883 0 10.424 8.288 18.886 18.508 18.886h64.269c9.495 0 17.313-7.296 18.38-16.695l63.869-427.112c0.498-3.355 0.746-6.633 0.746-9.836 0-19.632-8.701-37.324-22.267-50.702-12.781-12.615-30.139-21.415-48.453-24.157l-0.634-0.075c-3.982-0.56-7.877-0.869-11.64-0.869l-738.394-0c-4.005 0-8.143 0.331-12.306 0.952-18.289 2.726-35.64 11.512-48.428 24.119-13.522 13.308-22.192 30.979-22.185 50.702-0.078 3.195 0.173 6.489 0.671 9.866l63.959 427.725c1.384 9.359 9.284 16.074 18.289 16.066l64.261 0.016c10.22 0 18.508-8.461 18.508-18.886 0-10.422-8.288-18.883-18.508-18.883l-48.375 0-61.558-411.642c-0.203-1.384-0.309-2.827-0.309-4.261-0.075-8.741 4.191-17.004 10.841-23.554 7.371-7.264 17.479-12.357 28.184-13.951 2.183-0.325 4.517-0.498 6.957-0.498h738.393c2.306 0 4.487 0.144 6.513 0.424l0.415 0.067c10.718 1.601 20.818 6.708 28.204 13.991 6.603 6.518 10.849 14.773 10.849 23.552 0 1.429-0.106 2.857-0.312 4.231l-61.555 411.642h-48.383zM512.002 828.568c75.532 0 144.001-30.683 193.599-80.292 49.66-49.657 80.391-118.293 80.391-194.089 0-92.711-117.32-269.788-200.693-395.613-23.078-34.837-43.541-65.713-57.614-88.833-5.386-8.839-16.786-11.544-25.441-6.052-2.606 1.655-4.661 3.867-6.127 6.391-14.065 23.086-34.446 53.822-57.409 88.494-83.381 125.834-200.701 302.903-200.701 395.613 0 75.796 30.723 144.416 80.396 194.089 49.598 49.609 118.069 80.292 193.598 80.292v0zM679.723 721.43c-42.846 42.853-102.152 69.369-167.721 69.369-65.566 0-124.872-26.515-167.718-69.369-42.795-42.793-69.262-101.925-69.262-167.243 0-81.235 113.602-252.679 194.34-374.524 15.75-23.77 30.276-45.692 42.64-64.993 12.368 19.302 26.894 41.223 42.643 64.993 80.729 121.837 194.332 293.289 194.332 374.524-0 65.318-26.475 124.467-69.254 167.243zM512 681.863c35.013 0 66.8-14.268 89.848-37.316 23.121-23.123 37.427-55.066 37.427-90.36 0-35.277-14.313-67.245-37.427-90.352-23.048-23.048-54.835-37.316-89.848-37.316-35.019 0-66.797 14.268-89.845 37.316-23.114 23.107-37.43 55.074-37.43 90.352 0 35.286 14.308 67.245 37.43 90.36 23.048 23.048 54.827 37.316 89.845 37.316v0zM574.397 616.070c-15.901 15.898-37.967 25.742-62.397 25.742-24.437 0-46.494-9.844-62.395-25.742-15.832-15.826-25.631-37.71-25.631-61.883 0-24.165 9.799-46.049 25.631-61.872 15.901-15.901 37.959-25.745 62.395-25.745 24.431 0 46.496 9.844 62.397 25.745 15.832 15.824 25.628 37.708 25.628 61.872s-9.803 46.057-25.628 61.883z"  horiz-adv-x="1024" />

    
    <glyph glyph-name="xingqing" unicode="&#59185;" d="M1076.276932 710.594931 368.432819 710.594931c-40.653529 0-73.729569-33.07776-73.729569-73.734729l0-501.385495c0-40.658689 33.07776-73.734729 73.729569-73.734729l707.844113 0c40.66213 0 73.73817 33.07776 73.73817 73.734729L1150.015102 636.861922C1150.015102 677.517171 1116.937342 710.594931 1076.276932 710.594931L1076.276932 710.594931 1076.276932 710.594931zM1120.518802 135.474707c0-24.394182-19.849408-44.238429-44.24359-44.238429L368.432819 91.236277c-24.390741 0-44.238429 19.844248-44.238429 44.238429L324.19439 636.861922c0 24.392461 19.849408 44.238429 44.238429 44.238429l707.844113 0c24.394182 0 44.24359-19.851129 44.24359-44.238429L1120.520522 135.474707 1120.518802 135.474707zM1017.294653 511.515978c-24.433746 0-44.24187-19.804683-44.24187-44.24359 0-2.549339 0.34232-5.02643 0.753448-7.460515l-133.958994-77.348873c-7.785633 6.811999-17.862575 11.074659-29.011203 11.074659-11.141747 0-21.216969-4.26438-29.002602-11.074659l-148.026804 85.463065c-0.103212 6.576331-1.692679 12.739814-4.35039 18.313268l1.147375 1.152535-3.873894 3.873894c-3.392238 5.238014-7.849281 9.695057-13.078694 13.087295l-3.899697 3.896257-1.149095-1.155976c-5.766116 2.759204-12.149785 4.427799-18.960064 4.427799-24.440627 0-44.24359-19.804683-44.24359-44.24187 0-6.813719 1.668596-13.195668 4.424359-18.961784l-103.430573-103.435733c-5.767837 2.759204-12.154946 4.42952-18.965225 4.42952-24.435466 0-44.238429-19.809844-44.238429-44.24359 0-24.435466 19.799523-44.238429 44.238429-44.238429 24.438907 0 44.238429 19.802963 44.238429 44.238429 0 6.813719-1.663435 13.197388-4.420919 18.968665l103.430573 103.421972c5.767837-2.754043 12.149785-4.417478 18.966945-4.417478 13.887189 0 26.148787 6.529886 34.249218 16.560383l143.459668-82.832877c-0.416289-2.428925-0.751728-4.912896-0.751728-7.457075 0-24.440627 19.804683-44.248751 44.234989-44.248751 24.438907 0 44.24703 19.808124 44.24703 44.248751 0 2.544178-0.34232 5.022989-0.753448 7.457075l133.958994 77.347153c7.782193-6.811999 17.862575-11.074659 29.006043-11.074659 24.435466 0 44.24015 19.808124 44.24015 44.238429 0 24.437187-19.804683 44.24187-44.24015 44.24187l0 0L1017.292933 511.515978zM1017.294653 511.515978"  horiz-adv-x="1449" />

    
    <glyph glyph-name="wodeshoucang" unicode="&#58881;" d="M791.793724 682.419348l-167.835299 0c0 82.38257-66.827104 149.209674-149.209674 149.209674L232.308615 831.629023c-82.38257 0-149.209674-66.827104-149.209674-149.209674l0-37.251249 0-559.485109c0-82.38257 66.827104-149.209674 149.209674-149.209674l559.485109 0c82.38257 0 149.209674 66.827104 149.209674 149.209674L941.003398 533.209674C941.003398 615.592245 874.176294 682.419348 791.793724 682.419348zM903.64981 85.580652c0-61.710174-50.248251-111.856086-111.856086-111.856086L232.308615-26.275435c-61.710174 0-111.856086 50.248251-111.856086 111.856086L120.452528 645.168099l74.604837 0L195.057366 682.419348l-74.604837 0c0 61.710174 50.248251 111.856086 111.856086 111.856086l242.440136 0c61.710174 0 111.856086-50.248251 111.856086-111.856086L306.811113 682.419348l0-37.251249 317.044973 0 167.835299 0C853.503898 645.168099 903.64981 594.919848 903.64981 533.209674L903.64981 85.580652zM701.019388 394.131521l-84.531681 12.792325c-13.304018 2.149111-24.76594 10.745553-30.496902 23.026184l-37.865281 79.926444c-3.991205 9.005797-11.154907 16.169498-20.160704 20.160704-5.219268 2.353788-10.745553 3.377174-16.06716 3.377174-15.248451 0-29.780532-8.801119-36.330202-23.640216l-37.865281-79.926444c-5.730961-12.280632-17.090546-20.877074-30.496902-23.026184l-84.531681-12.792325c-8.391765-1.535079-16.06716-5.628623-22.105137-11.564261-16.78353-16.578853-16.885868-43.596242-0.307016-60.379772l61.198481-62.221867c9.619828-9.824505 13.918049-23.742554 11.6666-37.251249l-14.429742-87.806516c-1.842095-9.108135-0.511693-18.523286 3.684189-26.812712 7.26604-14.122726 21.491105-22.207476 36.330202-22.207476 6.242654 0 12.689986 1.43274 18.625625 4.502898l75.628223 41.447132c5.8333 3.274835 12.38297 4.809914 18.830302 4.809914 6.447332 0 12.997002-1.637418 18.830302-4.809914l75.628223-41.447132c5.8333-2.967819 12.178293-4.502898 18.625625-4.502898 2.763142 0 5.423946 0.307016 8.084749 0.818709 22.105137 4.502898 36.43254 26.096342 31.929642 48.201479l-14.429742 87.806516c-2.251449 13.611033 2.046772 27.426744 11.6666 37.251249l61.198481 62.221867c5.935639 6.037977 10.029182 13.713372 11.564261 22.105137C739.396362 367.421147 724.147911 389.8333 701.019388 394.131521zM696.823506 348.386168l-61.403158-62.324205c-17.806916-18.318609-25.891665-44.312612-21.695783-69.385569l14.429742-87.806516 0.102339-0.71637 0.102339-0.71637c0.204677-0.921047 0-1.842095-0.511693-2.660804-0.511693-0.818709-1.330402-1.330402-2.967819-1.637418-0.511693 0-0.921047 0.102339-1.43274 0.307016l-74.911853 41.037777c-11.257246 6.242654-23.947232 9.51749-36.841895 9.51749-12.792325 0-25.584649-3.274835-36.739556-9.415151L400.143914 123.548271c-0.409354-0.204677-0.921047-0.307016-1.330402-0.307016-0.511693 0-2.251449 0.102339-3.172497 1.944433-0.409354 0.71637-0.511693 1.535079-0.307016 2.353788l0.102339 0.71637 0.102339 0.71637 14.429742 87.704177c4.195882 25.175295-3.888867 51.169298-21.798121 69.590246l-61.30082 62.221867c-2.046772 2.149111-2.046772 5.526284 0 7.573056 0.71637 0.71637 1.535079 1.125725 2.456126 1.330402l83.917649 12.689986c25.584649 4.093544 47.485109 20.672397 58.230662 43.903258l38.172297 80.745153c0.614032 1.330402 1.944433 1.43274 2.251449 1.43274 0.307016 0 0.614032-0.102339 0.921047-0.204677 0.511693-0.204677 1.023386-0.71637 1.637418-2.046772l37.660604-79.619428c10.95023-23.537877 32.748351-40.11673 58.742355-44.312612l83.610634-12.689986c2.660804-0.71637 4.40056-3.377174 3.888867-6.242654C698.153908 350.228263 697.642215 349.204877 696.823506 348.386168z"  horiz-adv-x="1024" />

    
    <glyph glyph-name="qingkong" unicode="&#58995;" d="M987.428571 640a36.571429 36.571429 0 1 1 0 73.142857H36.571429a36.571429 36.571429 0 0 1 0-73.142857h950.857142zM365.714286 128a36.571429 36.571429 0 1 1 73.142857 0v365.714286a36.571429 36.571429 0 0 1-73.142857 0v-365.714286zM585.142857 128a36.571429 36.571429 0 1 1 73.142857 0v365.714286a36.571429 36.571429 0 0 1-73.142857 0v-365.714286zM804.571429-18.651429a36.278857 36.278857 0 0 0-36.425143-36.205714H255.853714A36.790857 36.790857 0 0 0 219.428571-18.651429V640H146.285714v-658.651429C146.285714-78.482286 195.510857-128 255.853714-128h512.292572C828.708571-128 877.714286-78.994286 877.714286-18.651429V640h-73.142857v-658.651429zM292.571429 786.285714c0 20.48 15.945143 36.571429 36.790857 36.571429h365.275428c20.48 0 36.790857-16.237714 36.790857-36.571429v-73.142857h73.142858v73.142857C804.571429 847.140571 755.419429 896 694.637714 896H329.362286C268.068571 896 219.428571 847.140571 219.428571 786.285714v-73.142857h73.142858v73.142857z"  horiz-adv-x="1024" />

    
    <glyph glyph-name="icon-test" unicode="&#58910;" d="M921.336294 540.873864c-26.714432-43.134403-61.029982-80.7143-100.382245-112.39586 0.440022-0.860601 1.052982-1.579985 1.405-2.492774L872.663758 296.61579c5.282307-13.628392-1.282203-29.136597-14.656815-34.56012a25.275663 25.275663 0 0 0-9.600658-1.868557c-10.760065 0-20.273742 6.599302-24.240078 16.814968l-46.689368 120.083959c-37.473473-23.722284-78.352509-42.590004-121.602546-55.57883l24.942066-123.252115c1.403976-6.950296 0.069585-14.049994-3.756558-19.983123-3.826142-5.941316-9.688663-9.996678-16.533558-11.444657-1.702782-0.367367-3.492544-0.552585-5.300726-0.552585-12.286838 0-23.011086 8.933463-25.50386 21.24793l-24.555256 121.425513a501.975692 501.975692 0 0 0-93.15054-8.722662c-33.946137 0-67.36527 3.598968-99.872638 10.207479l-20.886703-122.111128c-2.229784-12.769838-13.024641-22.046109-25.678846-22.046109-1.439792 0-2.931772 0.122797-4.563945 0.385786-6.828522 1.219781-12.812817 5.099135-16.814968 10.917654-4.019547 5.819542-5.564739 12.884448-4.370541 19.887956l21.553899 125.98025c-45.38977 14.332427-87.955214 35.332716-126.675074 61.511959l-37.824467-105.699344c-3.720741-10.478655-13.550621-17.508769-24.485671-17.508769-3.071965 0-6.073322 0.544399-8.91709 1.623987-6.564509 2.439562-11.794627 7.327896-14.7264 13.778818-2.949168 6.441713-3.229554 13.656021-0.842181 20.334117l43.213198 120.751155c-34.350342 29.618575-64.469314 63.890122-88.463798 102.636588-3.739161 6.002714-4.949732 13.129019-3.405563 20.071128 1.526773 6.932899 5.616928 12.848633 11.514241 16.630772 4.178159 2.719948 8.986675 4.151553 13.901615 4.151553 9.021467 0 17.271362-4.65195 22.063505-12.428053 74.825173-120.794134 214.786855-195.830107 365.279381-195.830107 150.476153 0 290.420439 75.035974 365.245611 195.820897 4.792143 7.78429 13.042037 12.43624 22.046109 12.43624 4.931313 0 9.741875-1.430582 13.901615-4.143367 5.91471-3.790326 10.003841-9.697873 11.531637-16.638958 1.546216-6.933923 0.335644-14.069437-3.402493-20.072151z"  horiz-adv-x="1024" />

    
    <glyph glyph-name="zengchang" unicode="&#59020;" d="M307.704592 303.197696H63.450612L511.998465 792.118048l448.553992-488.920352h-244.345054v-326.625012H307.708686V303.197696h-0.004094z"  horiz-adv-x="1024" />

    
    <glyph glyph-name="jian" unicode="&#58931;" d="M0 486.4h1024v-204.8H0z"  horiz-adv-x="1024" />

    
    <glyph glyph-name="yanzhengma" unicode="&#58911;" d="M511.944649-125.232439C357.237998-125.232439 69.467022 103.644842 69.467022 320.068099V733.264932c0 10.01857 8.441061 18.127523 18.930116 18.321253l25.046426 0.415134c0.940971 0 99.18938 1.964968 200.509783 41.790169C417.902932 834.585334 484.877904 881.49549 485.569794 881.965976l14.861802 10.433704a19.981789 19.981789 0 0 0 22.804701 0.055351l15.055531-10.489055c0.664215-0.470485 67.722214-47.380642 171.616447-88.174488 101.375753-39.8252 199.624163-41.790169 200.648161-41.790169l24.852696-0.415134c10.489056-0.193729 18.930116-8.302683 18.930116-18.321253l0.19373-413.196833c0-216.423257-287.770976-445.300538-442.588329-445.300538zM886.257252 685.109374c-38.053961 2.878263-118.064145 12.592402-201.201673 45.277295-84.964118 33.376784-147.40029 70.821882-173.11093 87.34422-25.682965-16.466987-88.174488-53.967436-173.083255-87.34422C255.862245 697.840153 176.073466 688.070664 137.549019 685.137049v-365.041274c0-169.762182 250.68566-377.273893 374.39563-377.273893 47.906478 0 141.339332 38.607474 233.167 123.433213 88.506596 81.698396 141.339332 176.625733 141.339332 253.813004l-0.193729 365.06895zM476.464519 250.713025a33.985647 33.985647 0 0 0-48.155559 0l-102.122995 102.039968a34.040998 34.040998 0 0 0 48.155559 48.155558l78.072891-78.045215 197.18871 197.188709a33.930296 33.930296 0 0 0 48.127883 0c13.339643-13.284292 13.339643-34.815915 0-48.155558l-221.266489-221.183462z"  horiz-adv-x="1024" />

    
    <glyph glyph-name="mima" unicode="&#58889;" d="M779.8-64H242.17a134.41 134.41 0 0 0-134.4 134.41V384a134.4 134.4 0 0 0 134.4 134.41h22.4V608c0 129.9 116.51 224 246.41 224S757.4 737.91 757.4 608v-89.58h22.4A134.4 134.4 0 0 0 914.21 384v-313.59A134.41 134.41 0 0 0 779.8-64zM511 787.22c-105.16 0-201.61-74-201.61-179.21v-89.58H712.6V608c0 105.17-96.45 179.22-201.6 179.22zM869.41 384a89.61 89.61 0 0 1-89.61 89.61H242.17a89.61 89.61 0 0 1-89.6-89.61v-313.59a89.61 89.61 0 0 1 89.6-89.61H779.8a89.61 89.61 0 0 1 89.61 89.61V384z m-336-244.18v-69.46A22.4 22.4 0 0 0 511 48a22.4 22.4 0 0 0-22.4 22.4v69.45a134.16 134.16 0 0 0-110.45 152.94c8.8 58.66 57.51 105.66 116.42 112.64A134.45 134.45 0 0 0 645.4 272c0-66.56-48.5-121.44-112.01-132.15zM511 361.6a89.6 89.6 0 1 1 89.6-89.6 89.6 89.6 0 0 1-89.6 89.6z"  horiz-adv-x="1024" />

    
    <glyph glyph-name="shouji" unicode="&#58907;" d="M712.89676 810.930676H318.328118c-52.297278 0-94.69828-42.384746-94.69828-94.696474V53.362496c0-52.295472 42.401002-94.696474 94.69828-94.696474h394.568642c52.293666 0 94.696474 42.401002 94.696474 94.696474V716.236008c0 52.311728-42.401002 94.694668-94.696474 94.694668z m47.346431-741.783628c0-52.297278-10.835511-63.132789-63.130983-63.132789H334.11267c-52.297278 0-63.132789 10.835511-63.132789 63.132789V700.453262c0 52.297278 10.835511 63.132789 63.132789 63.132789h363.001344c52.295472 0 63.130983-10.835511 63.130983-63.132789v-631.306214zM270.979881 258.53819h489.26331v-47.350043H270.979881v47.350043zM515.612439 148.05897c21.792038 0 39.456864-17.66302 39.456864-39.456864s-17.66302-39.456864-39.456864-39.456864c-21.793844 0-39.456864 17.66302-39.456864 39.456864s17.66302 39.456864 39.456864 39.456864z"  horiz-adv-x="1024" />

    
    <glyph glyph-name="shoucang" unicode="&#58882;" d="M786.309939-107.349333c-11.093333 0-23.893333 3.754667-34.986666 9.216l-239.616 119.808L270.043273-98.133333c-23.893333-12.970667-55.296-11.093333-77.482667 5.461333s-34.986667 46.08-29.525333 73.728l49.834666 258.048L23.088606 416.085333C2.779273 436.394667-4.559394 467.797333 2.779273 493.568c9.216 27.648 31.402667 47.957333 60.757333 51.541333l263.68 47.957334L445.317939 832.853333c12.970667 25.770667 38.741333 42.325333 66.389334 42.325334S567.003273 858.624 578.096606 832.853333l117.930667-239.616 263.68-46.08c27.648-3.754667 51.541333-23.893333 59.050666-51.541333 9.216-27.648 1.877333-57.173333-18.432-77.482667L810.203273 239.104l47.957333-258.048c5.461333-29.525333-7.338667-57.173333-29.525333-73.728-10.922667-9.216-25.770667-14.677333-42.325334-14.677333z"  horiz-adv-x="1024" />

    
    <glyph glyph-name="jiacu" unicode="&#59584;" d="M900.362 332.22H563.781v-336.581H460.219V332.22H123.638V435.782h336.581V772.363h103.562v-336.581h336.581V332.22z"  horiz-adv-x="1024" />

    
    <glyph glyph-name="hangqing" unicode="&#59083;" d="M492.005053 442.152421L310.972632 215.578947l-84.021895 67.368421 249.532631 312.373895 160.606316-134.03621L805.456842 680.421053H645.658947V788.210526H1024l-369.771789-481.495579-162.223158 135.437474zM107.627789 33.684211h914.701474v-107.789474H0V842.105263h107.627789v-808.421052z"  horiz-adv-x="1024" />

    
    <glyph glyph-name="fankui" unicode="&#58930;" d="M496.531722-64.58006c-247.492447 0-448.58006 201.087613-448.58006 448.58006s201.087613 448.58006 448.58006 448.58006 448.58006-201.087613 448.58006-448.58006-201.087613-448.58006-448.58006-448.58006z m0 855.39577C272.241692 790.81571 89.716012 608.29003 89.716012 384S272.241692-21.268882 494.984894-21.268882c224.29003 0 405.268882 182.52568 405.268882 405.268882S720.821752 790.81571 496.531722 790.81571zM408.362538 212.302115h-103.637462c-9.280967 0-17.015106 7.734139-17.015106 17.015106v103.637462c0 4.640483 1.546828 9.280967 4.640483 12.374622l276.882175 276.882175c6.187311 6.187311 17.015106 6.187311 24.749245 0l102.090635-102.090634c1.546828-1.546828 7.734139-7.734139 6.187311-15.468278 0-3.093656-1.546828-6.187311-4.640484-9.280967l-276.882175-278.429003c-3.093656-3.093656-7.734139-4.640483-12.374622-4.640483zM323.287009 246.332326H402.175227l259.867069 259.86707-78.888217 78.888217-259.86707-259.867069V246.332326z m363.504532-103.637462H306.271903c-9.280967 0-17.015106 7.734139-17.015105 17.015106s7.734139 17.015106 17.015105 17.015106h380.519638c9.280967 0 17.015106-7.734139 17.015106-17.015106s-7.734139-17.015106-17.015106-17.015106z"  horiz-adv-x="1024" />

    
    <glyph glyph-name="dingyue" unicode="&#58886;" d="M848.128 84.864a1226.368 1226.368 0 0 0-0.8192 40.7552c0.0256 100.7616 0.2688 389.12 0.2688 389.1328 0 92.3904-32.3584 118.848-133.1712 118.848H312.0896C215.4624 633.6 166.4 619.6096 166.4 525.6704l-0.0256-418.4704c-0.1536-70.6944-0.2304-105.3824 41.6768-113.7536 2.752-0.7296 5.6832-0.704 8.7296-0.704 22.144 0 48.8064 18.9824 97.92 54.9888 57.472 42.112 137.4976 96.5632 192.8704 94.08l3.8272 0.3328 6.7968-0.3712c66.944 0 131.1616-52.0832 187.1616-93.8368 42.9824-32.0256 74.048-54.7584 101.76-54.7584l3.0976 0.5376c40.6016 7.4368 39.4112 44.48 37.9136 91.1488z m-43.4304-52.7616c-14.9376 1.6896-47.5264 25.1264-76.4032 46.656-60.5312 45.12-135.8208 102.656-215.5008 102.656l-4.0064-0.3968c-73.2032 1.9968-153.8688-54.7584-219.5712-102.9248-27.1744-19.9296-65.2288-46.3616-78.0288-46.528v-19.2l2.752 19.2896c-10.1376 2.0224-10.7136 8.4096-10.5728 77.0688l0.7296 416.96c0 57.2288 14.0544 69.5296 107.9936 69.5296h402.3168c85.4656 0 94.7712-13.7216 94.7712-80.4352 0 0-0.256-289.9584-0.2688-390.7328 0-15.7056 0.4352-28.8768 0.832-41.216 1.2544-38.8736 0.4224-48.4352-5.0432-50.7264zM638.0032 417.2032m-43.5968 0a43.5968 43.5968 0 1 1 87.1936 0 43.5968 43.5968 0 1 1-87.1936 0ZM558.4256 361.5488c-9.472 0-17.3952-7.3472-18.0096-16.7552a29.7216 29.7216 0 0 0-29.6064-27.6736 29.824 29.824 0 0 0-29.5808 27.1616c-0.7808 9.2288-8.4864 16.4608-17.5616 16.4608l-1.792-0.1024a17.92 17.92 0 0 1-16.3584-19.3408c2.8032-33.664 31.488-60.032 65.2928-60.032 34.4064 0 63.1296 26.88 65.3696 61.184 0.64 9.856-6.848 18.4064-17.7536 19.0976zM384.0512 447.488c-17.6 3.7504-29.376-3.968-30.6688-4.864-5.0944-3.5712-6.272-10.4704-2.8416-15.68s10.5344-6.6688 15.8336-3.3536c0.2176 0.128 5.3248 3.2 13.4784 1.216 4.7488-1.1776 10.9952-4.16 18.304-11.008-13.5296 2.0992-29.4784 2.1504-45.1456-3.328a11.52 11.52 0 0 1 7.5904-21.7472c29.4016 10.3168 62.6048-6.4 62.8992-6.5536a11.4944 11.4944 0 0 1 15.2192 16.0512c-16.6912 28.4416-35.0976 45.0176-54.6688 49.2672z"  horiz-adv-x="1024" />

    
    <glyph glyph-name="jifen" unicode="&#59251;" d="M509.092 394.347c241.775 0 424.087 78.085 424.087 181.64 0 103.543-182.312 181.628-424.087 181.628S84.994 679.53 84.994 575.985c0-103.554 182.322-181.638 424.098-181.638z m0 317.432c222.909 0 378.252-71.562 378.252-135.793S732.002 440.182 509.092 440.182c-222.92 0-378.263 71.573-378.263 135.804s155.343 135.793 378.263 135.793zM509.084 201.938c241.115 0 422.937 77.599 422.937 180.483 0 27.17-13.128 52.454-36.241 75.131-0.149 0.154-0.266 0.32-0.419 0.469-0.17 0.167-0.285 0.346-0.456 0.51l-0.115-0.125c-3.717 3.407-8.576 5.608-14.017 5.608-11.543 0-20.899-9.356-20.899-20.899 0-6.11 2.722-11.481 6.901-15.302l-0.083-0.091c13.949-14.025 21.81-31.155 21.81-45.301 0-64.785-155.814-136.966-379.42-136.966-223.595 0-379.41 72.18-379.41 136.966 0 16.14 4.538 29.952 22.324 45.67 0.214 0.205 0.43 0.382 0.635 0.595 0.137 0.118 0.24 0.233 0.379 0.354l-0.085 0.08c3.417 3.72 5.623 8.59 5.623 14.038 0 11.543-9.356 20.9-20.899 20.9a20.832 20.832 0 0 1-14.773-6.12l-0.123 0.119c-23.408-22.798-36.595-48.278-36.595-75.636 0-102.883 181.821-180.483 422.926-180.483zM895.577 266.47c-0.169 0.165-0.282 0.343-0.453 0.508l-0.115-0.125c-3.717 3.408-8.577 5.609-14.018 5.609-11.54 0-20.898-9.356-20.898-20.9 0-6.11 2.72-11.482 6.901-15.302l-0.084-0.09c13.95-14.025 21.811-31.155 21.811-45.302 0-64.787-155.814-136.966-379.42-136.966-223.595 0-379.41 72.18-379.41 136.966 0 16.14 4.538 29.953 22.322 45.67 0.214 0.203 0.43 0.382 0.635 0.595 0.137 0.119 0.24 0.233 0.379 0.354l-0.085 0.081c3.417 3.72 5.623 8.589 5.623 14.038 0 11.543-9.356 20.899-20.898 20.899-5.77 0-10.993-2.34-14.773-6.12l-0.123 0.119c-23.41-22.797-36.595-48.279-36.595-75.636 0-102.884 181.821-180.482 422.927-180.482 241.114 0 422.935 77.598 422.935 180.482 0 27.167-13.126 52.453-36.235 75.127-0.152 0.158-0.272 0.324-0.426 0.475z"  horiz-adv-x="1024" />

    
    <glyph glyph-name="querenmima" unicode="&#58951;" d="M795.542026 530.390161H264.606352v97.415854c0 122.63697 107.458959 218.715255 244.899875 219.474723 134.301028-0.714126 235.468878-94.718045 235.468877-219.474723v-48.775939c0-13.421035 11.289992-24.382302 25.266458-24.382302 13.987801 0 25.300464 10.870585 25.300464 24.382302v48.775939c0 151.961478-122.070204 266.697721-284.392176 268.18265h-3.23057c-164.97444-1.473593-293.891185-118.72628-293.891185-268.171314v-99.97764c-85.525089-12.038124-151.723436-82.475885-151.723436-168.193674v-316.947254c0-94.207955 79.370003-170.698783 177.012564-170.698783h556.236138c97.687902 0 177.001229 76.490829 177.001229 170.698783v316.935918c0 94.162613-79.472021 170.75546-177.012564 170.75546z m126.422972-487.61203c0-67.286538-56.710672-121.911509-126.422972-121.911509h-556.224803c-69.746306 0-126.343624 54.647642-126.343624 121.911509V359.702713c0 67.263868 56.688002 121.854832 126.343624 121.854833h556.236138c69.825653 0 126.422972-54.670312 126.422972-121.854833v-316.924582h-0.011335zM735.646125 374.824048L484.024398 123.224991c-0.714126-0.725461-1.688965-0.725461-2.267067 0l-101.439897 101.428562a31.251514 31.251514 0 0 1-44.185129-44.185129l101.439897-101.417227a63.999292 63.999292 0 0 1 45.329998-18.759976 63.772585 63.772585 0 0 1 45.318662 18.759976l251.621727 251.599057a31.240178 31.240178 0 1 1-44.196464 44.173794z"  horiz-adv-x="1024" />

    
    <glyph glyph-name="shuoming" unicode="&#58972;" d="M879.00902422 642.45577207C776.88076221 788.47245322 602.9250374 855.13420869 437.77312578 828.10971622a447.03475752 447.03475752 0 0 1-184.20674151-75.04346955C50.63646289 611.1399222699999 1.00948379 330.57362782999996 142.9056582 127.63365703a32.30477138 32.30477138 0 1 1 52.96358409 37.0041583C74.3645498 338.39254043000005 116.84596748 578.6180707 290.61074287 700.12276318s413.91995537 79.01322539 535.44474755-94.7214S905.06871582 191.43115723000005 731.33409042 69.91641532999995c-118.4997375-82.82218096-271.53132979-92.46014648-399.54843281-25.18533984a32.29070098 32.29070098 0 1 1-30.02944745-57.17454082c149.50403701-78.60117481 328.29382002-67.33510664 466.62223886 29.41639629 202.89977138 141.92632441 252.52674961 422.47251914 110.6305752 625.48284111zM592.86497099 355.68861738c40.67241416 33.74795302 60.74229638 60.4709455 73.12391632 80.17902773s18.63272988 40.47141445 18.632729 62.42064874c-0.10050029 39.5970627-10.51231641 74.42036807-44.35072032 104.25886523s-72.93296513 44.86327119-130.09745566 44.86327032c-54.42083614 0-91.8571456-14.82377344-125.30359863-44.37082002q-26.13004102-23.03463691-39.65736269-51.25508086c-12.96452021-26.95414307 1.76880322-52.98368378 30.02944745-61.30509698l5.83905938-1.11555175c15.32627402-2.27130381 26.77324219 4.70340703 38.58201124 26.3812913 6.26116026 11.49721787 21.16533339 25.45669073 31.4062998 34.10975391 17.08502695 14.44187285 38.13981065 21.65778458 63.4960002 21.65778457 26.24059161 0 47.01397412-6.92446113 62.52114901-20.7733834s23.21553691-30.43144776 23.21553691-49.84807851c0-13.93937227-4.49235703-26.71294219-13.17557109-38.32071065q-8.48221348-10.97461758-52.06913261-46.43107383c-29.07469599-23.60748779-48.48127646-44.96377148-58.12929141-63.78745078s-12.74341992-31.04449893-12.87407109-60.40059521c-0.13065029-27.93904453 21.2256334-35.66750625 41.51661591-35.66750713 27.89884424 0 39.7176627 16.56242666 42.91356797 38.19006035q1.76880322 11.87911846 5.1657082 18.94428017c5.08530761 10.63291641 18.09002901 24.67278896 39.19506241 42.2100668zM512.51509355 221.87265615a49.8380291 49.8380291 0 0 1-49.82797881-49.8380291c0-29.85859687 20.74323252-49.8380291 49.82797881-49.8380291a49.8380291 49.8380291 0 0 1 49.8480794 49.82797881 49.84807852 49.84807852 0 0 1-49.8480794 49.8380291z"  horiz-adv-x="1024" />

    
    <glyph glyph-name="dianhua2" unicode="&#58960;" d="M354.509135 13.619641v-1.382399c-7.577596 0-13.158393-0.6144-16.383992-0.6144h-3.839998a147.967926 147.967926 0 0 0-148.019126 144.230328 146.841527 146.841527 0 0 0 40.19198 105.983947 147.609526 147.609526 0 0 0 103.321548 46.438377l4.710398 0.2048c31.027184 0 60.72317-9.625595 86.271957-28.159986 35.839982-12.543994 72.089564 5.017597 107.519946 52.223974 35.225582 46.745577 42.649579 83.865558 22.015989 110.284745a148.479926 148.479926 0 0 0-24.883188 22.681588 146.483127 146.483127 0 0 0-37.529581 92.774354 147.865526 147.865526 0 0 0 143.718328 151.449524l4.505598 0.1024c68.607966 0 129.177535-48.281576 144.076728-114.790343 12.083194-36.863982 42.803179-183.193508-105.113548-379.69901-136.908732-182.067109-269.772665-201.727899-320.563039-201.727899z m-4.761598 74.239963c22.118389-0.512 138.239931 2.559999 265.369467 171.878314 129.843135 172.543914 100.35195 293.478253 93.030354 316.006242-8.294396 36.095982-38.246381 60.00637-72.191964 60.00637-42.751979-1.228799-74.751963-34.918383-73.625563-75.263962 0.6656-21.503989 10.854395-37.068781 19.30239-46.335977l0.768-0.9216c4.710398-5.017597 9.113595-8.857596 13.465593-11.673594a36.607982 36.607982 0 0 0 7.526396-6.451197c22.835189-25.599987 67.123166-97.126351-15.513592-206.847896-53.401573-71.014364-108.083146-85.862357-144.588728-85.913557-18.739191 0-37.375981 3.788798-55.398372 11.263994a37.785581 37.785581 0 0 0-8.703996 5.119998 72.703964 72.703964 0 0 1-44.799977 15.871992c-22.118389-0.6144-40.29438-8.703996-53.708773-22.835189-13.414393-14.182393-20.47999-32.767984-19.91679-52.223974a72.857564 72.857564 0 0 1 73.523163-71.014364l3.788798 0.511999c3.993598 0 7.935996-0.3072 11.673594-1.177599zM512.000256-127.999488a508.722946 508.722946 0 0 0-198.399901 39.88478 36.556782 36.556782 0 1 0 28.415986 67.430366 435.967782 435.967782 0 0 1 169.983915-34.150383c242.022279 0 438.886181 196.863902 438.886181 438.834981 0 241.971079-196.863902 438.834981-438.834981 438.834981-242.022279 0-438.886181-196.863902-438.886181-438.834981 0-82.739159 23.142388-163.327918 66.918367-233.011083a36.556782 36.556782 0 0 0-61.951969-38.911981A510.463745 510.463745 0 0 0 0.000512 384.000256C0.000512 666.316915 229.683597 896 512.000256 896s511.999744-229.683085 511.999744-511.999744-229.683085-511.999744-511.999744-511.999744z"  horiz-adv-x="1024" />

    
    <glyph glyph-name="xuanze" unicode="&#58891;" d="M887.905 597.791c-12.864 12.064-33.152 11.488-45.216-1.408L415.935 142.016l-233.12 229.697c-12.606 12.416-32.864 12.287-45.28-0.32-12.416-12.577-12.256-32.865 0.353-45.248l256.48-252.672c0.096-0.096 0.223-0.127 0.32-0.223s0.127-0.224 0.223-0.32c2.016-1.92 4.449-3.01 6.785-4.289 1.152-0.673 2.143-1.663 3.36-2.143 3.775-1.473 7.775-2.24 11.743-2.24 4.192 0 8.384 0.833 12.287 2.496 1.313 0.544 2.336 1.663 3.553 2.369 2.4 1.409 4.895 2.592 6.944 4.672 0.096 0.096 0.127 0.256 0.224 0.352 0.063 0.097 0.192 0.128 0.287 0.224L889.277 552.58c12.162 12.83 11.491 33.085-1.372 45.212z"  horiz-adv-x="1024" />

    
    <glyph glyph-name="hangqing1" unicode="&#59027;" d="M993.8 848H29.9C14.8 848 1.5 834.8 1.5 819.7v-701.2c0-15.1 13.2-28.3 28.3-28.3h213.6c9.4 0 17 3.8 22.7 11.3l175.8 234.4 71.8-60.5c11.3-9.4 28.3-7.6 37.8 1.9l158.8 190.9c13.2-7.6 30.2-13.2 47.2-13.2 49.1 0 90.7 41.6 90.7 90.7 0 51-39.7 90.7-90.7 90.7-49.1 0-90.7-41.6-90.7-90.7 0-11.3 1.9-24.6 7.6-34L528.8 335.8l-73.7 62.4c-5.7 5.7-13.2 7.6-20.8 5.7-7.6 0-15.1-3.8-18.9-11.3L228.3 146.8H58.2V791.3h907.2v-644.5H483.5c-15.1 0-28.3-13.2-28.3-28.4v-139.9H80.9c-15.1 0-28.4-13.2-28.4-28.4 0-15.1 13.2-28.3 28.4-28.3h850.5c15.1 0 28.3 13.2 28.3 28.3 0 15.1-13.2 28.4-28.3 28.4H511.8V90.1h483.8c15.1 0 28.4 13.2 28.4 28.3V819.7c-1.9 15.1-15.1 28.3-30.2 28.3zM757.5 579.6c18.9 0 34-15.1 34-34s-15.1-34-34-34-34 15.1-34 34 15.1 34 34 34z"  horiz-adv-x="1024" />

    
    <glyph glyph-name="icon-" unicode="&#58887;" d="M268.02606186-38.30899283999997a117.44211993 117.44211993 0 0 0-117.28124029 117.2812403L150.74482157 689.0277525399999A117.44211993 117.44211993 0 0 0 268.02606186 806.30899284l488.02831609 0a117.44211993 117.44211993 0 0 0 117.2812403-117.2812403l0-609.97506528a117.44211993 117.44211993 0 0 0-117.2812403-117.28124029z m0 792.97562884a65.79976308 65.79976308 0 0 1-65.71932328-65.71932326l0-609.97506528a65.79976308 65.79976308 0 0 1 65.71932328-65.71932326l488.02831609 0a65.79976308 65.79976308 0 0 1 65.71932328 65.71932326L821.77370123 689.0277525399999a65.79976308 65.79976308 0 0 1-65.71932328 65.71932326zM318.94446042 358.17882159a25.82117841 25.82117841 0 1 0 0 51.56191701l386.11107916 0a25.82117841 25.82117841 0 1 0 0-51.56191701zM318.94446042 236.23207242a25.82117841 25.82117841 0 1 0 0 51.24015779l263.44037172 0a25.82117841 25.82117841 0 1 0 0-51.64235684zM318.94446042 480.52776979a25.82117841 25.82117841 0 1 0 0 51.64235684l386.11107916 0a25.82117841 25.82117841 0 1 0 0-51.64235684z"  horiz-adv-x="1024" />

    
    <glyph glyph-name="Icon_wode" unicode="&#58885;" d="M875.50720001-40.258133329999964H124.99840001c-19.4176 0-38.83626667 9.7088-51.45813334 24.272l-0.97066667 0.97066667c-12.62186667 17.47733333-16.5056 37.86666667-11.65119999 56.31253333 39.808 201.9488 206.8032 355.35146667 405.83786666 371.85706667 4.8544 0.97066667 8.73813333 1.94133333 12.62186666 1.94133333h36.89493334l-4.85546666-48.54506667H492c-7.76746667 0-11.6512 0-17.47626666-1.94133333h-2.91200001C291.99253333 351.98613334000004 141.504 214.11733333999996 106.5504 30.616533340000046c-0.97066667-4.8544-0.97066667-11.6512 3.88266667-16.5056l0.97066667-1.94133334c2.91413333-3.88373333 7.76853333-5.82613333 13.5936-5.82613333h751.47946667c5.82506667 0 10.67946667 1.94133333 13.59253333 5.82613333 4.8544 5.82506667 5.82506667 11.65013333 4.85439999 18.44693334-22.33066667 120.39253333-95.1488 222.336-198.06399999 280.59093333l-0.97066667 0.97066667c-7.76746667 4.85546667-17.47626667 9.70986667-26.2144 14.56426666-2.91306667 1.94133333-5.82613333 2.912-8.73813333 4.85333334l-13.59253333 5.82613333 19.41759999 43.69066667 13.59253333-5.82506667c9.7088-3.88373333 19.41866667-9.7088 28.1568-13.59253333l11.65013334-5.82613334c116.5088-66.02133333 197.09333333-180.58666667 223.30773333-314.5728 4.8544-19.4176 0-39.80693333-14.5632-57.2832-13.59253333-15.53386667-33.98186667-24.272-53.39946666-24.272zM505.59253333 381.1136c-122.33386667 0-223.30773333 100.97386667-223.30773332 223.30773334S383.25866668 827.72906667 505.59253333 827.72906667s223.30773333-100.97386667 223.30773334-223.30666667-101.94453333-223.3088-223.30666667-223.3088z m0 411.66293334c-104.8576 0-188.3552-84.46826667-188.35519999-188.3552s84.46933333-188.3552 188.35519999-188.3552 188.3552 84.46933333 188.3552 188.3552-84.46933333 188.3552-188.3552 188.3552zM505.59253333 376.25919999999996c-126.2176 0-228.16213333 101.94453333-228.16213333 228.16213334S379.37493333 832.58453334 505.59253333 832.58453334s228.16213333-101.9456 228.16213335-228.1632-102.9152-228.16213333-228.16213335-228.16213334z m0 446.61546667c-120.39146667 0-218.45333333-98.0608-218.45333333-218.45333333s98.06186667-218.45333333 218.45333333-218.45333334 218.45333333 98.06186667 218.45333334 218.45333334-98.0608 218.45333333-218.45333334 218.45333333z m0-411.66293333c-106.79893333 0-193.2096 86.41066667-193.2096 193.2096s86.41066667 193.21066667 193.2096 193.21066666c106.8 0 193.2096-86.41066667 193.2096-193.21066666s-87.38133333-193.2096-193.2096-193.2096z m0 376.7104c-100.97386667 0-183.5008-82.52693333-183.5008-183.5008 0-100.97386667 82.52693333-183.5008 183.5008-183.5008s183.5008 82.528 183.50080001 183.5008c0 100.97386667-82.52693333 183.5008-183.50080001 183.5008zM207.52533333 120.91200000000003c-1.94133333 0-4.8544 0.97066667-6.7968 1.94133334-6.79573333 3.88373333-9.7088 12.62186667-5.82506666 19.41866666 85.44 166.02453333 270.88213333 197.09333333 278.6496 198.064 7.76746667 0.97066667 15.53386667-3.88373333 16.5056-11.6512 0.97066667-7.76746667-3.88373333-15.53386667-11.6512-16.5056-1.94133333 0-178.6464-30.09706667-257.2896-182.52906666-2.912-5.82613333-7.76746667-8.73813333-13.59253334-8.73813334z m-33.01119999-84.46933333c-7.7664 0-14.5632 6.7968-14.5632 14.56426667 0 28.15573333 18.44693333 58.25386667 21.36 61.16693333 3.88266667 6.79573333 13.59253333 8.73813333 20.38933333 4.85333333 6.79573333-3.88266667 8.73813333-13.59146667 4.85333333-20.38826666-4.85333333-6.79573333-16.50453333-29.12746667-16.50453333-45.632-0.97066667-7.76746667-6.7968-14.56426667-15.53493333-14.56426667z"  horiz-adv-x="1024" />

    
    <glyph glyph-name="jifen2" unicode="&#59692;" d="M421.376 523.264c117.76 0 240.128 26.112 313.344 75.776v-90.624h68.096V707.072C802.816 826.368 606.72 890.88 421.888 890.88 237.056 890.88 40.448 826.368 40.448 707.072v-541.696c0-119.296 196.608-183.808 381.44-183.808v68.608c-194.048 0-313.344 67.072-313.344 115.2v162.816c73.216-49.664 195.584-75.776 313.344-75.776v68.608c-194.048 0-313.344 67.072-313.344 115.2V599.04c73.216-49.664 195.584-75.776 312.832-75.776m0 299.008c194.048 0 313.344-67.072 313.344-115.2s-119.296-115.2-313.344-115.2c-194.048 0-313.344 67.072-313.344 115.2s119.296 115.2 313.344 115.2m305.152-336.384c-168.96 0-257.024-65.536-257.024-130.56v-348.16c0-64.512 88.576-130.56 257.024-130.56 167.424 0 256 64.512 257.024 129.024v349.696c0 65.024-88.064 130.56-257.024 130.56m0-68.608c124.928 0 189.44-43.52 189.44-61.952 0-18.432-64.512-61.952-189.44-61.952s-189.44 43.52-189.44 61.952c0 18.432 64.512 61.952 189.44 61.952m0-471.552c-124.928 0-189.44 43.52-189.44 61.952v82.944c43.008-23.552 106.496-39.424 189.44-39.424s145.92 15.872 189.44 39.424v-82.944c-0.512-18.432-64.512-61.952-189.44-61.952m0 174.08c-124.928 0-189.44 43.52-189.44 61.952v82.944c43.008-23.552 106.496-39.424 189.44-39.424s145.92 15.872 189.44 39.424v-82.944c-0.512-18.432-64.512-61.952-189.44-61.952"  horiz-adv-x="1024" />

    
    <glyph glyph-name="guanbi" unicode="&#58922;" d="M573.44 383.872l237.888-237.696a43.328 43.328 0 0 0 0-59.712 43.392 43.392 0 0 0-59.712 0L513.728 324.16 265.856 76.288a44.672 44.672 0 0 0-61.568 0 44.672 44.672 0 0 0 0 61.568L452.16 385.728 214.208 623.552a43.328 43.328 0 0 0 0 59.648 43.392 43.392 0 0 0 59.712 0l237.952-237.76 246.272 246.272a44.672 44.672 0 0 0 61.568 0 44.672 44.672 0 0 0 0-61.568L573.44 383.872z"  horiz-adv-x="1024" />

    
    <glyph glyph-name="shoucang2" unicode="&#58902;" d="M773.461-109.431c-14.404 0-30.583 4.13-45.602 11.639L513.57 9.387 297.95-97.621c-13.653-7.27-29.287-11.094-45.227-11.094a96.256 96.256 0 0 0-57.549 18.842c-30.173 22.63-45.636 61.85-38.502 97.553l44.1 228.762-169.028 157.56A104.073 104.073 0 0 0 5.461 494.66l0.342 1.16c12.288 36.83 42.769 62.635 79.735 67.585l234.837 42.7L425.78 820.19c16.93 33.894 51.37 55.671 87.791 55.671 37.99 0 73.319-22.596 88.132-56.286l105.063-213.401 234.871-41.063a95.676 95.676 0 0 0 78.268-68.369 98.987 98.987 0 0 0-24.474-101l-0.58-0.58-168.55-158.72 42.598-229.172c6.86-36.659-7.714-73.66-38.059-96.733a90.283 90.283 0 0 0-57.378-19.968zM513.673 71.714l239.104-119.569c7.031-3.55 15.12-5.768 20.65-5.768 8.534 0 16.452 2.628 22.255 7.475l1.092 0.887c13.585 10.206 20.207 26.385 17.238 42.257l-48.128 259.209L956.21 435.439c11.674 11.844 15.667 28.808 10.48 44.407l-0.513 1.639a39.185 39.185 0 0 1-32.529 28.365l-1.092 0.17-263.339 46.046L550.708 796.81c-5.77 13.448-21.368 23.21-37.138 23.21-15.496 0-30.31-9.694-37.82-24.678L357.99 556.169 93.252 508.075c-16.077-2.014-28.57-12.698-34.338-29.355-4.096-15.223 0.751-33.553 11.947-44.988l190.532-177.561-50.005-259.345c-3.004-14.985 4.096-32.256 17.237-42.12 6.588-4.95 15.121-7.68 24.064-7.68 6.895 0 13.517 1.603 19.217 4.675l0.82 0.478 240.947 119.535z"  horiz-adv-x="1024" />

    
    <glyph glyph-name="fanhui" unicode="&#58880;" d="M674.22000122 59.559997560000056c-6.5177679 0-13.10795546 2.31742859-18.10491084 6.95228577L331.67508793 367.19864271999995c-9.99391079 9.26971435-9.99391079 24.33300019 0 33.60271456L656.11509038 701.48771667c9.99391079 9.26971435 26.21591092 9.26971435 36.20982169 0 9.99391079-9.26971435 9.99391079-24.33300019 0-33.60271454L385.98982048 384l306.33509159-283.88500214c9.99391079-9.26971435 9.99391079-24.33300019 0-33.60271453-4.9969554-4.63485718-11.58714294-6.95228576-18.10491085-6.95228577z"  horiz-adv-x="1024" />

    
    <glyph glyph-name="dingdan" unicode="&#58897;" d="M825.7 750H691.3c-6.3 27.5-31.7 48.7-61.4 48.7h-66.6c-8.5 21.2-28.6 34.9-51.8 34.9-23.3 0-43.4-13.8-51.8-34.9H392c-29.6 0-55-21.2-61.4-48.7H196.2c-34.9 0-61.4-28.6-61.4-63.5v-683.4c0-34.9 27.5-63.5 61.4-63.5h628.4c34.9 0 64.5 28.6 64.5 63.5V686.5c1.1 34.9-28.5 63.5-63.4 63.5z m-313.2-30.7c28.6 0 50.8-23.3 50.8-50.8 0-28.6-23.3-50.8-50.8-50.8-28.6 0-50.8 23.3-50.8 50.8s22.3 50.8 50.8 50.8z m193.6-525.8c0-12.7-10.6-23.3-23.3-23.3H342.2c-12.7 0-23.3 10.6-23.3 23.3v21.2c0 12.7 10.6 23.3 23.3 23.3h340.6c12.7 0 23.3-10.6 23.3-23.3v-21.2z m0 214.8c0-12.7-10.6-23.3-23.3-23.3H342.2c-12.7 0-23.3 10.6-23.3 23.3v21.2c0 12.7 10.6 23.3 23.3 23.3h340.6c12.7 0 23.3-10.6 23.3-23.3v-21.2z"  horiz-adv-x="1024" />

    
    <glyph glyph-name="dingyue1" unicode="&#58966;" d="M513.4 54.6c-4.6 0-9.3 0.7-13.7 2L31.4 196.1c-15.9 4.7-26.6 17.2-26.6 31.1V860.5c0 10.8 6.4 20.9 17.1 27.1 10.8 6.2 24.5 7.7 36.8 4l454.6-135.4L968 891.6c12.3 3.7 26.1 2.2 36.8-4 10.7-6.2 17.1-16.3 17.1-27.1v-633.2c0-13.9-10.6-26.4-26.6-31.1L527.1 56.5c-4.4-1.3-9-1.9-13.7-1.9z m-428 195.8l428-127.5 428 127.5V813.2L527.1 689.8c-8.9-2.6-18.6-2.6-27.4 0L85.4 813.3v-562.9zM537.4 576.4l26.7-54.1c3.9-7.9 11.4-13.4 20.2-14.6L644 499c22-3.2 30.7-30.2 14.8-45.7l-43.2-42.1c-6.3-6.2-9.2-15-7.7-23.7l10.2-59.4c3.8-21.9-19.2-38.6-38.9-28.2L525.9 328c-7.8 4.1-17.1 4.1-24.9 0l-53.4-28.1c-19.6-10.3-42.6 6.4-38.9 28.2l10.2 59.4c1.5 8.7-1.4 17.5-7.7 23.7L368 453.3c-15.9 15.5-7.1 42.5 14.8 45.7l59.7 8.7c8.7 1.3 16.3 6.7 20.2 14.6l26.7 54.1c9.8 19.9 38.2 19.9 48 0z"  horiz-adv-x="1024" />

    
    <glyph glyph-name="wuxing" unicode="&#59001;" d="M1083.533 440.521L900.784 281.97799999999995c-11.506-11.355-16.757-27.714-14.04-43.748l43.151-254.663c3.376-20.18 0.006-34.641-16.34-46.695a52.745 52.745 0 0 0-31.253-10.278 52.543 52.543 0 0 0-24.716 6.188L626.84 58.68299999999999a48.29 48.29 0 0 1-45.433 0L360.347-67.22000000000003c-17.913-9.551-39.598-7.937-55.996 4.09-16.345 12.054-29.399 26.49-25.97 46.695l52.862 259.948c2.716 16.033-2.534 32.394-14.04 43.748L124.744 440.518c-14.537 14.288-19.719 35.677-13.5 55.156 6.27 19.48 22.882 33.658 42.92 36.619L404.5 576.769c15.896 2.34 29.637 12.446 36.748 27.027L556.501 850.024c8.93 18.376 27.4 30 47.653 30s38.667-11.623 47.651-30l110.731-246.222c7.111-14.585 20.854-24.695 36.753-27.035l254.853-44.475c19.986-2.932 36.648-17.139 42.869-36.619 6.246-19.479 0.983-40.868-13.473-55.157zM2322.862 440.62l-182.749-158.543c-11.506-11.355-16.757-27.714-14.04-43.748l43.151-254.663c3.376-20.18 0.006-34.641-16.34-46.695a52.75 52.75 0 0 0-31.253-10.278 52.543 52.543 0 0 0-24.716 6.188l-230.746 125.901a48.29 48.29 0 0 1-45.433 0l-221.06-125.903c-17.913-9.551-39.598-7.937-55.996 4.09-16.345 12.054-29.399 26.49-25.97 46.695l52.862 259.948c2.716 16.033-2.534 32.394-14.04 43.748l-192.459 153.257c-14.537 14.288-19.719 35.677-13.5 55.157 6.27 19.48 22.882 33.658 42.92 36.619l250.336 44.476c15.896 2.34 29.637 12.446 36.748 27.027L1795.83 850.124c8.93 18.376 27.4 30 47.651 30s38.667-11.623 47.651-30l110.731-246.222c7.111-14.585 20.854-24.695 36.753-27.035l254.853-44.475c19.986-2.932 36.648-17.139 42.869-36.619 6.246-19.479 0.983-40.868-13.473-55.157zM3563.174 440.62l-182.749-158.543c-11.506-11.355-16.757-27.714-14.04-43.748l43.151-254.663c3.376-20.18 0.006-34.641-16.34-46.695a52.745 52.745 0 0 0-31.253-10.278 52.543 52.543 0 0 0-24.716 6.188l-230.746 125.901a48.29 48.29 0 0 1-45.433 0l-221.06-125.903c-17.913-9.551-39.598-7.937-55.996 4.09-16.345 12.054-29.399 26.49-25.97 46.695l52.86 259.948c2.716 16.033-2.534 32.394-14.04 43.748l-192.459 153.257c-14.537 14.288-19.719 35.677-13.5 55.157 6.272 19.48 22.882 33.658 42.92 36.619l250.336 44.476c15.896 2.34 29.637 12.446 36.748 27.027L3036.14 850.124c8.93 18.376 27.4 30 47.651 30s38.667-11.623 47.651-30l110.731-246.222c7.111-14.585 20.854-24.695 36.753-27.035l254.853-44.475c19.986-2.932 36.648-17.139 42.869-36.619 6.246-19.479 0.983-40.868-13.473-55.157zM4803.487 440.62l-182.749-158.543c-11.506-11.355-16.757-27.714-14.04-43.748l43.151-254.663c3.376-20.18 0.006-34.641-16.34-46.695a52.745 52.745 0 0 0-31.253-10.278 52.543 52.543 0 0 0-24.716 6.188l-230.746 125.901a48.29 48.29 0 0 1-45.433 0l-221.06-125.903c-17.913-9.551-39.598-7.937-55.996 4.09-16.345 12.054-29.399 26.49-25.97 46.695l52.86 259.948c2.716 16.033-2.534 32.394-14.04 43.748l-192.459 153.257c-14.537 14.288-19.719 35.677-13.5 55.157 6.272 19.48 22.882 33.658 42.92 36.619l250.336 44.476c15.896 2.34 29.637 12.446 36.748 27.027l115.253 246.228c8.93 18.376 27.4 30 47.651 30s38.667-11.623 47.651-30l110.731-246.222c7.111-14.585 20.854-24.695 36.753-27.035l254.853-44.475c19.986-2.932 36.648-17.139 42.869-36.619 6.246-19.479 0.983-40.868-13.473-55.157zM6043.799 440.62L5861.05 282.077c-11.506-11.355-16.757-27.714-14.04-43.748l43.151-254.663c3.376-20.18 0.006-34.641-16.34-46.695a52.745 52.745 0 0 0-31.253-10.278 52.543 52.543 0 0 0-24.716 6.188l-230.746 125.901a48.29 48.29 0 0 1-45.433 0l-221.06-125.903c-17.913-9.551-39.598-7.937-55.996 4.09-16.345 12.054-29.399 26.49-25.97 46.695l52.86 259.948c2.716 16.033-2.534 32.394-14.04 43.748l-192.459 153.257c-14.537 14.288-19.719 35.677-13.5 55.157 6.272 19.48 22.882 33.658 42.92 36.619l250.336 44.476c15.896 2.34 29.637 12.446 36.748 27.027l115.253 246.228c8.93 18.376 27.4 30 47.653 30s38.667-11.623 47.651-30L5722.8 603.902c7.111-14.585 20.854-24.695 36.753-27.035l254.853-44.475c19.986-2.932 36.648-17.139 42.869-36.619 6.246-19.479 0.983-40.868-13.473-55.157z"  horiz-adv-x="6144" />

    
    <glyph glyph-name="icon-test1" unicode="&#58893;" d="M234.170543 840.434109v-71.441861H154.790698c-19.844961 0-39.689922-11.906977-51.5969-23.813953-15.875969-15.875969-23.813953-35.72093-23.813953-55.565892v-662.821705c0-23.813953 7.937984-43.658915 23.813953-55.565892 11.906977-15.875969 31.751938-23.813953 51.5969-23.813953h714.418604c19.844961 0 39.689922 7.937984 55.565892 23.813953 15.875969 11.906977 23.813953 31.751938 23.813953 55.565892V689.612403c0 19.844961-7.937984 39.689922-23.813953 55.565892-15.875969 11.906977-35.72093 23.813953-55.565892 23.813953h-75.410852V840.434109h75.410852c83.348837 0 150.821705-67.472868 150.821706-150.821706v-662.821705c0-87.317829-67.472868-154.790698-150.821706-154.790698H154.790698c-83.348837 0-150.821705 67.472868-150.821706 154.790698V689.612403c0 83.348837 67.472868 150.821705 150.821706 150.821706h79.379845zM289.736434 860.27907c0 19.844961 19.844961 35.72093 39.689923 35.72093s35.72093-15.875969 35.72093-35.72093v-119.069768c0-23.813953-15.875969-39.689922-35.72093-39.689922s-39.689922 15.875969-39.689923 39.689922V860.27907z m369.116279 0c0 19.844961 15.875969 35.72093 39.689923 35.72093 19.844961 0 35.72093-15.875969 35.72093-35.72093v-119.069768c0-23.813953-15.875969-39.689922-35.72093-39.689922-23.813953 0-39.689922 15.875969-39.689923 39.689922V860.27907z m-234.170542-95.255814V840.434109h174.635658v-75.410853h-174.635658z m59.534883-476.27907l238.139535 281.79845 55.565892-47.627907-289.736434-341.333334-198.449613 190.511628 51.596899 51.596899 142.883721-134.945736z"  horiz-adv-x="1024" />

    
    <glyph glyph-name="goumai" unicode="&#58909;" d="M779.8784 259.3792h-439.296c-22.016 0-39.936 17.92-39.936 39.936s17.92 39.936 39.936 39.936h439.3984c22.016 0 39.936-17.92 39.936-39.936s-17.92-39.936-40.0384-39.936zM1003.4176 638.7712c-19.6608 26.4192-49.7664 41.7792-82.7392 41.984l-733.696 5.0176-18.2272 82.1248C156.0576 825.2416 106.0864 865.28 47.4112 865.28H39.936C17.92 865.28 0 847.36 0 825.344s17.92-39.8336 39.936-39.8336h7.4752c20.992 0 38.8096-14.336 43.4176-34.816l124.416-560.128c10.6496-48.0256 52.3264-81.5104 101.4784-81.5104h496.2304c45.7728 0 86.7328 30.72 99.7376 74.6496l107.008 363.7248c9.3184 31.5392 3.3792 64.9216-16.2816 91.3408z m-60.3136-68.7104L836.096 206.1312a24.2688 24.2688 0 0 0-23.1424-17.3056H316.8256c-11.3664 0-21.0944 7.7824-23.552 18.944L204.8 605.9008l715.264-4.9152c10.5472-0.1024 16.5888-6.144 19.2512-9.728 2.6624-3.584 6.7584-11.1616 3.7888-21.1968zM363.7248 83.1488c-49.7664 0-90.2144-40.448-90.2144-90.2144S313.9584-97.28 363.7248-97.28c49.664 0 90.112 40.448 90.2144 90.2144 0 49.7664-40.448 90.2144-90.2144 90.2144zM762.5728-7.0656m-90.2144 0a90.2144 90.2144 0 1 1 180.4288 0 90.2144 90.2144 0 1 1-180.4288 0Z"  horiz-adv-x="1024" />

    


  </font>
</defs>
</svg>
